HIERARCHY
ROOT Hips
{
	OFFSET 0.00000 0.00000 0.00000
	CHANNELS 6 Xposition Yposition Zposition Zrotation Yrotation Xrotation 
	JOINT LHipJoint
	{
		OFFSET 0 0 0
		CHANNELS 3 Zrotation Yrotation Xrotation
		JOINT LeftHip
		{
			OFFSET 1.54859 -1.61379 0.86856
			CHANNELS 3 Zrotation Yrotation Xrotation
			JOINT LeftKnee
			{
				OFFSET 2.25087 -6.18423 0.00000
				CHANNELS 3 Zrotation Yrotation Xrotation
				JOINT LeftAnkle
				{
					OFFSET 2.40328 -6.60297 0.00000
					CHANNELS 3 Zrotation Yrotation Xrotation
					JOINT LeftToe
					{
						OFFSET 0.17435 -0.47901 2.02453
						CHANNELS 3 Zrotation Yrotation Xrotation
						End Site
						{
							OFFSET 0.00000 -0.00000 1.04844
						}
					}
				}
			}
		}
	}
	JOINT RHipJoint
	{
		OFFSET 0 0 0
		CHANNELS 3 Zrotation Yrotation Xrotation
		JOINT RightHip
		{
			OFFSET -1.54669 -1.61379 0.86856
			CHANNELS 3 Zrotation Yrotation Xrotation
			JOINT RightKnee
			{
				OFFSET -2.28132 -6.26789 0.00000
				CHANNELS 3 Zrotation Yrotation Xrotation
				JOINT RightAnkle
				{
					OFFSET -2.51636 -6.91365 0.00000
					CHANNELS 3 Zrotation Yrotation Xrotation
					JOINT RightToe
					{
						OFFSET -0.15124 -0.41552 2.21090
						CHANNELS 3 Zrotation Yrotation Xrotation
						End Site
						{
							OFFSET -0.00000 -0.00000 1.13399
						}
					}
				}
			}
		}
	}
	JOINT lowerback
	{
		OFFSET 0 0 0
		CHANNELS 3 Zrotation Yrotation Xrotation
		JOINT Chest
		{
			OFFSET -0.04287 2.26161 -0.25690
			CHANNELS 3 Zrotation Yrotation Xrotation
			JOINT Chest2
			{
				OFFSET 0.02248 2.28395 -0.10140
				CHANNELS 3 Zrotation Yrotation Xrotation
				JOINT lowerneck
				{
					OFFSET 0 0 0
					CHANNELS 3 Zrotation Yrotation Xrotation
					JOINT Neck
					{
						OFFSET -0.11644 1.38496 0.11345
						CHANNELS 3 Zrotation Yrotation Xrotation
						JOINT Head
						{
							OFFSET 0.29383 1.36600 0.06642
							CHANNELS 3 Zrotation Yrotation Xrotation
							End Site
							{
								OFFSET 0.11075 1.41395 -0.00294
							}
						}
					}
				}
				JOINT LeftCollar
				{
					OFFSET 0 0 0
					CHANNELS 3 Zrotation Yrotation Xrotation
					JOINT LeftShoulder
					{
						OFFSET 3.51628 0.59542 -0.30346
CHANNELS 3 Zrotation Xrotation Yrotation
						JOINT LeftElbow
						{
OFFSET 0 -4.764050 0.000000
CHANNELS 3 Zrotation Xrotation Yrotation
							JOINT LeftWrist
							{
OFFSET 0 -3.137590 -0.000000
CHANNELS 3 Zrotation Xrotation Yrotation
								JOINT lhand
								{
									OFFSET 0 0 0
CHANNELS 3 Zrotation Xrotation Yrotation
									JOINT LFingers
									{
OFFSET 0 -0.732260 -0.000000
CHANNELS 3 Zrotation Xrotation Yrotation
										End Site
										{
OFFSET 0 -0.590370 -0.000000
										}
									}
								}
								JOINT LThumb
								{
OFFSET 0 0.000000 0.000000
CHANNELS 3 Zrotation Xrotation Yrotation
									End Site
									{
OFFSET 0 -0.599380 0.599380
									}
								}
							}
						}
					}
				}
				JOINT RightCollar
				{
					OFFSET 0 0 0
					CHANNELS 3 Zrotation Yrotation Xrotation
					JOINT RightShoulder
					{
						OFFSET -3.30990 0.84213 -0.36430
CHANNELS 3 Zrotation Xrotation Yrotation
						JOINT RightElbow
						{
OFFSET 0 -5.101610 -0.000000
CHANNELS 3 Zrotation Xrotation Yrotation
							JOINT RightWrist
							{
OFFSET 0 -3.232670 -0.000000
CHANNELS 3 Zrotation Xrotation Yrotation
								JOINT rhand
								{
									OFFSET 0 0 0
CHANNELS 3 Zrotation Xrotation Yrotation
									JOINT RFingers
									{
OFFSET 0 -0.702000 -0.000000
CHANNELS 3 Zrotation Xrotation Yrotation
										End Site
										{
OFFSET 0 -0.565970 -0.000000
										}
									}
								}
								JOINT RThumb
								{
OFFSET 0 0.000000 0.000000
CHANNELS 3 Zrotation Xrotation Yrotation
									End Site
									{
OFFSET 0 -0.574610 0.574610
									}
								}
							}
						}
					}
				}
			}
		}
	}
}
MOTION
Frames: 10
Frame Time: 0.008333333333333333
-34.306400 13.202600 10.829500 29.995000 70.661000 30.537500 0.000000 0.000000 0.000000 -14.480400 -6.233700 -55.069000 3.588800 11.592100 34.303800 1.705400 5.235600 23.562600 3.955200 -12.100600 -36.088800 0.000000 0.000000 0.000000 -30.273000 -10.815500 -8.585500 -5.919000 -14.349400 44.655700 -0.691500 12.881600 -16.218900 -6.017900 14.445600 -45.053400 -9.935700 8.098300 34.396800 -1.791600 8.738900 15.588000 0.514800 4.608300 -0.761500 -6.699700 -10.533500 -1.377100 27.167700 -9.817100 -21.781500 10.140700 -5.898400 -4.115700 -0.000000 -0.000000 0.000000 -7.400400 23.112600 -62.394900 26.509900 -37.707800 9.197800 26.602500 -8.993400 -30.709400 0.000000 0.000000 0.000000 -7.125000 0.000000 0.000000 -6.003700 63.479300 2.696100 -0.000000 -0.000000 0.000000 -34.978900 -32.956100 5.820900 -46.887700 -51.660400 -23.710300 -2.834500 13.663400 -25.683100 0.000000 0.000000 0.000000 7.125000 0.000000 -0.000000 16.200900 5.109800 15.333300
-34.150411 13.175018 10.763708 28.416657 70.109220 28.910838 0.000000 0.000000 0.000000 -13.487917 -6.306308 -54.769817 3.905947 12.005163 35.790676 1.371790 3.424674 20.923585 4.678103 -12.897007 -39.180590 0.000000 0.000000 0.000000 -30.397479 -10.116337 -7.988751 -5.672699 -14.091922 43.631014 -0.656525 12.606735 -15.808841 -6.175853 14.592462 -45.675767 -10.081291 8.118633 34.396511 -1.844511 8.676314 15.474005 0.541920 4.564054 -0.884766 -6.960846 -10.525355 -1.185529 27.628475 -9.780940 -21.710625 10.358582 -5.902992 -4.076566 0.000000 0.000000 0.000000 -7.677142 23.193295 -62.684957 26.350503 -37.551667 9.100903 25.862441 -10.351955 -29.917586 0.000000 0.000000 0.000000 -7.125000 0.000000 0.000000 -6.433196 62.474052 2.711927 0.000000 0.000000 0.000000 -34.576957 -32.215233 5.824828 -49.206016 -52.565747 -25.569111 -0.651956 14.782470 -25.604080 0.000000 0.000000 0.000000 7.125000 0.000000 0.000000 17.470558 5.304028 16.615146
-33.994422 13.147436 10.697916 26.838313 69.557439 27.284176 0.000000 0.000000 0.000000 -12.495434 -6.378916 -54.470634 4.223095 12.418226 37.277552 1.038180 1.613748 18.284569 5.401006 -13.693413 -42.272380 0.000000 0.000000 0.000000 -30.521958 -9.417175 -7.392002 -5.426398 -13.834443 42.606329 -0.621549 12.331870 -15.398782 -6.333806 14.739325 -46.298134 -10.226883 8.138965 34.396222 -1.897422 8.613728 15.360010 0.569039 4.519807 -1.008032 -7.221992 -10.517211 -0.993958 28.089250 -9.744781 -21.639750 10.576464 -5.907584 -4.037431 0.000000 0.000000 0.000000 -7.953884 23.273990 -62.975013 26.191106 -37.395534 9.004005 25.122382 -11.710511 -29.125771 0.000000 0.000000 0.000000 -7.125000 0.000000 0.000000 -6.862693 61.468803 2.727754 0.000000 0.000000 0.000000 -34.175013 -31.474365 5.828756 -51.524331 -53.471095 -27.427923 1.530587 15.901541 -25.525061 0.000000 0.000000 0.000000 7.125000 0.000000 0.000000 18.740217 5.498256 17.896992
-33.838434 13.119855 10.632124 25.259970 69.005659 25.657514 0.000000 0.000000 0.000000 -11.502952 -6.451524 -54.171451 4.540242 12.831288 38.764427 0.704570 -0.197178 15.645554 6.123910 -14.489820 -45.364170 0.000000 0.000000 0.000000 -30.646437 -8.718012 -6.795253 -5.180096 -13.576965 41.581643 -0.586574 12.057005 -14.988723 -6.491758 14.886187 -46.920500 -10.372474 8.159298 34.395934 -1.950333 8.551142 15.246015 0.596159 4.475561 -1.131298 -7.483139 -10.509066 -0.802388 28.550025 -9.708621 -21.568875 10.794345 -5.912176 -3.998297 0.000000 0.000000 0.000000 -8.230627 23.354684 -63.265070 26.031710 -37.239400 8.907108 24.382324 -13.069066 -28.333957 0.000000 0.000000 0.000000 -7.125000 0.000000 0.000000 -7.292189 60.463555 2.743581 0.000000 0.000000 0.000000 -33.773070 -30.733498 5.832684 -53.842647 -54.376442 -29.286734 3.713131 17.020611 -25.446041 0.000000 0.000000 0.000000 7.125000 0.000000 0.000000 20.009875 5.692484 19.178839
-33.687987 13.098452 10.567077 23.643572 68.473084 24.107720 0.000000 0.000000 0.000000 -11.099878 -6.081520 -54.650393 4.981224 13.324713 40.666977 0.408176 -2.570249 13.224615 6.963117 -15.228485 -48.613797 0.000000 0.000000 0.000000 -30.618654 -8.031270 -6.262704 -4.925815 -13.289444 40.479996 -0.526648 11.778212 -14.284557 -6.541899 14.933420 -47.119166 -10.348337 8.097560 34.229099 -2.081882 8.471120 15.204805 0.489151 4.432696 -1.095455 -7.572507 -10.549378 -0.720352 29.010086 -9.715701 -21.552185 10.978614 -5.944902 -3.960172 0.000000 0.000000 0.000000 -8.252155 23.292339 -63.792905 25.948653 -37.157947 8.856649 23.578857 -14.307343 -27.504384 0.000000 0.000000 0.000000 -7.125000 0.000000 0.000000 -7.771228 59.420113 2.725251 0.000000 0.000000 0.000000 -33.318758 -30.070337 5.909692 -56.190849 -55.151233 -31.204326 5.438360 16.579812 -25.093673 0.000000 0.000000 0.000000 7.125000 0.000000 0.000000 21.026787 6.089247 20.111446
-33.542309 13.082365 10.502672 21.994441 67.957030 22.624050 0.000000 0.000000 0.000000 -11.203822 -5.330775 -55.798692 5.528730 13.887266 42.927097 0.143795 -5.426886 10.991269 7.902371 -15.917482 -51.999196 0.000000 0.000000 0.000000 -30.459893 -7.355213 -5.785380 -4.664669 -12.976080 39.312145 -0.445260 11.496040 -13.327396 -6.499299 14.894949 -46.953357 -10.178196 7.965226 33.918998 -2.281077 8.376100 15.226206 0.266763 4.391020 -0.922744 -7.514108 -10.631372 -0.732540 29.469532 -9.759976 -21.582106 11.133967 -6.001827 -3.922915 0.000000 0.000000 0.000000 -8.054143 23.106949 -64.525281 25.931267 -37.140733 8.846136 22.720847 -15.442153 -26.642330 0.000000 0.000000 0.000000 -7.125000 0.000000 0.000000 -8.292885 58.343816 2.677539 0.000000 0.000000 0.000000 -32.819397 -29.474022 6.049565 -58.564762 -55.813716 -33.172483 6.770200 14.797190 -24.506166 0.000000 0.000000 0.000000 7.125000 0.000000 0.000000 21.826284 6.660233 20.743632
-33.396631 13.066278 10.438266 20.345309 67.440975 21.140380 0.000000 0.000000 0.000000 -11.307766 -4.580031 -56.946990 6.076236 14.449820 45.187216 -0.120586 -8.283523 8.757923 8.841626 -16.606478 -55.384595 0.000000 0.000000 0.000000 -30.301131 -6.679155 -5.308056 -4.403523 -12.662716 38.144293 -0.363872 11.213868 -12.370235 -6.456699 14.856479 -46.787549 -10.008056 7.832891 33.608898 -2.480273 8.281080 15.247607 0.044376 4.349344 -0.750033 -7.455710 -10.713367 -0.744728 29.928978 -9.804252 -21.612027 11.289321 -6.058752 -3.885657 0.000000 0.000000 0.000000 -7.856132 22.921559 -65.257658 25.913880 -37.123520 8.835623 21.862836 -16.576964 -25.780275 0.000000 0.000000 0.000000 -7.125000 0.000000 0.000000 -8.814543 57.267519 2.629827 0.000000 0.000000 0.000000 -32.320036 -28.877706 6.189438 -60.938674 -56.476199 -35.140640 8.102040 13.014568 -23.918659 0.000000 0.000000 0.000000 7.125000 0.000000 0.000000 22.625781 7.231220 21.375819
-33.251385 13.052390 10.373253 18.602332 66.925533 19.570689 0.000000 0.000000 0.000000 -11.371074 -3.763085 -58.121562 6.622390 15.001500 47.424433 -0.355518 -10.837274 6.795413 9.616680 -17.169329 -58.168211 0.000000 0.000000 0.000000 -30.073023 -5.992863 -4.841553 -4.144892 -12.349109 36.980744 -0.287415 10.853175 -11.432475 -6.426480 14.829041 -46.669656 -9.817924 7.700545 33.319730 -2.653709 8.185357 15.250283 -0.165096 4.306661 -0.607740 -7.418585 -10.792573 -0.750817 30.375460 -9.853156 -21.625964 11.442564 -6.115647 -3.843159 0.000000 0.000000 0.000000 -7.691074 22.765835 -65.966456 25.894477 -37.104299 8.823899 21.036987 -17.671195 -24.911444 0.000000 0.000000 0.000000 -7.125000 0.000000 0.000000 -9.301002 56.192767 2.568438 0.000000 0.000000 0.000000 -31.842613 -28.265732 6.352628 -63.316677 -57.123273 -37.115541 9.472885 11.179481 -23.305551 0.000000 0.000000 0.000000 7.125000 0.000000 0.000000 23.450668 7.820157 22.025144
-33.111454 13.065560 10.300760 15.704336 66.417624 16.942273 0.000000 0.000000 0.000000 -10.934242 -2.131369 -59.619499 7.151903 15.419357 49.379766 -0.228007 -9.663184 8.166271 8.370821 -16.179619 -53.545270 0.000000 0.000000 0.000000 -28.991412 -5.180601 -4.508232 -3.917219 -12.032511 35.870136 -0.271646 9.526072 -10.733485 -6.548649 14.937375 -47.141492 -9.381756 7.568066 33.288191 -2.510111 8.080979 15.022495 -0.215610 4.251584 -0.839832 -7.643283 -10.837454 -0.681848 30.662368 -9.959036 -21.443173 11.569845 -6.172168 -3.736153 0.000000 0.000000 0.000000 -7.931599 22.975225 -66.385064 25.850260 -37.060370 8.797270 20.606970 -18.265980 -23.959193 0.000000 0.000000 0.000000 -7.125000 0.000000 0.000000 -9.354259 55.137034 2.338714 0.000000 0.000000 0.000000 -31.635186 -27.461036 6.802804 -65.745031 -57.580698 -39.173462 11.323783 8.698679 -22.377359 0.000000 0.000000 0.000000 7.125000 0.000000 0.000000 24.588049 8.630022 22.885408
-32.971524 13.078730 10.228268 12.806341 65.909714 14.313857 0.000000 0.000000 0.000000 -10.497410 -0.499653 -61.117437 7.681416 15.837214 51.335099 -0.100495 -8.489095 9.537130 7.124961 -15.189908 -48.922329 0.000000 0.000000 0.000000 -27.909801 -4.368338 -4.174911 -3.689546 -11.715912 34.759528 -0.255876 8.198968 -10.034496 -6.670818 15.045710 -47.613329 -8.945588 7.435586 33.256653 -2.366512 7.976601 14.794707 -0.266123 4.196507 -1.071923 -7.867980 -10.882336 -0.612879 30.949277 -10.064915 -21.260383 11.697126 -6.228689 -3.629147 0.000000 0.000000 0.000000 -8.172124 23.184616 -66.803672 25.806042 -37.016442 8.770642 20.176954 -18.860765 -23.006942 0.000000 0.000000 0.000000 -7.125000 0.000000 0.000000 -9.407517 54.081301 2.108991 0.000000 0.000000 0.000000 -31.427760 -26.656341 7.252979 -68.173385 -58.038122 -41.231382 13.174680 6.217876 -21.449166 0.000000 0.000000 0.000000 7.125000 0.000000 0.000000 25.725430 9.439887 23.745671
